<svg width="42" height="40" viewBox="0 0 42 40" fill="none" xmlns="http://www.w3.org/2000/svg">
<path d="M40.0666 17.2866L38.435 15.27C38.0486 14.7955 37.8525 14.1943 37.885 13.5833L38.0133 10.9983C38.0583 10.0121 37.7673 9.03973 37.1878 8.24042C36.6083 7.44111 35.7747 6.86217 34.8233 6.59831L32.33 5.91998C31.7366 5.75853 31.2219 5.38721 30.8816 4.87498L29.47 2.71165C28.9282 1.88977 28.124 1.27564 27.1884 0.969344C26.2529 0.663051 25.2412 0.682663 24.3183 1.02498L21.88 1.95998C21.3139 2.17998 20.686 2.17998 20.12 1.95998L17.7 1.02498C16.7745 0.680036 15.7594 0.659016 14.8204 0.965352C13.8814 1.27169 13.074 1.88728 12.53 2.71165L11.1183 4.87498C10.778 5.38721 10.2633 5.75853 9.66995 5.91998L7.17662 6.59831C6.22525 6.86217 5.39161 7.44111 4.81212 8.24042C4.23262 9.03973 3.94158 10.0121 3.98662 10.9983L4.11495 13.5833C4.1474 14.1943 3.95135 14.7955 3.56495 15.27L1.93329 17.2866C1.319 18.0576 0.984497 19.0142 0.984497 20C0.984497 20.9858 1.319 21.9423 1.93329 22.7133L3.56495 24.73C3.95135 25.2044 4.1474 25.8056 4.11495 26.4166L3.98662 29.0016C3.94158 29.9879 4.23262 30.9602 4.81212 31.7595C5.39161 32.5589 6.22525 33.1378 7.17662 33.4016L9.66995 34.08C10.2633 34.2414 10.778 34.6128 11.1183 35.125L12.53 37.2883C13.0699 38.1122 13.874 38.728 14.8102 39.0345C15.7464 39.341 16.7589 39.32 17.6816 38.975L20.12 38.04C20.686 37.82 21.3139 37.82 21.88 38.04L24.3 38.975C25.2255 39.3199 26.2405 39.3409 27.1795 39.0346C28.1185 38.7283 28.9259 38.1127 29.47 37.2883L30.8816 35.125C31.2219 34.6128 31.7366 34.2414 32.33 34.08L34.8233 33.4016C35.7747 33.1378 36.6083 32.5589 37.1878 31.7595C37.7673 30.9602 38.0583 29.9879 38.0133 29.0016L37.885 26.4166C37.8525 25.8056 38.0486 25.2044 38.435 24.73L40.0666 22.7133C40.6809 21.9423 41.0154 20.9858 41.0154 20C41.0154 19.0142 40.6809 18.0576 40.0666 17.2866ZM38.6366 21.5583L37.005 23.575C36.3395 24.4034 36.0003 25.4469 36.0516 26.5083L36.18 29.0933C36.2084 29.6608 36.0421 30.221 35.7087 30.6811C35.3753 31.1412 34.8948 31.4736 34.3466 31.6233L31.8533 32.3016C30.8239 32.5724 29.9339 33.2203 29.36 34.1166L27.93 36.28C27.6207 36.7572 27.1572 37.114 26.6167 37.2908C26.0762 37.4676 25.4915 37.4538 24.96 37.2516L22.54 36.335C21.5494 35.95 20.4505 35.95 19.46 36.335L17.04 37.2516C16.5087 37.4566 15.923 37.4719 15.3819 37.2948C14.8407 37.1178 14.3773 36.7593 14.07 36.28L12.64 34.1166C12.066 33.2203 11.176 32.5724 10.1466 32.3016L7.65329 31.6233C7.10516 31.4736 6.6246 31.1412 6.29119 30.6811C5.95778 30.221 5.79152 29.6608 5.81995 29.0933L5.94829 26.5083C5.99958 25.4469 5.66046 24.4034 4.99495 23.575L3.36329 21.5583C3.00733 21.1169 2.8132 20.567 2.8132 20C2.8132 19.433 3.00733 18.883 3.36329 18.4416L4.99495 16.425C5.66046 15.5965 5.99958 14.5531 5.94829 13.4916L5.81995 10.9066C5.79152 10.3392 5.95778 9.77897 6.29119 9.31887C6.6246 8.85877 7.10516 8.52634 7.65329 8.37665L10.1466 7.69831C11.176 7.42752 12.066 6.77968 12.64 5.88332L14.07 3.71998C14.2935 3.36901 14.6026 3.08059 14.9682 2.88177C15.3337 2.68295 15.7438 2.58026 16.16 2.58331C16.4608 2.58473 16.759 2.64063 17.04 2.74831L19.46 3.66498C20.4494 4.05609 21.5505 4.05609 22.54 3.66498L24.96 2.74831C25.4912 2.54335 26.0769 2.5281 26.618 2.70515C27.1592 2.88219 27.6226 3.24067 27.93 3.71998L29.36 5.88332C29.9339 6.77968 30.8239 7.42752 31.8533 7.69831L34.3466 8.37665C34.8948 8.52634 35.3753 8.85877 35.7087 9.31887C36.0421 9.77897 36.2084 10.3392 36.18 10.9066L36.0516 13.4916C36.0003 14.5531 36.3395 15.5965 37.005 16.425L38.6366 18.4416C38.9926 18.883 39.1867 19.433 39.1867 20C39.1867 20.567 38.9926 21.1169 38.6366 21.5583Z" fill="white"/>
<path d="M28.4433 13.8584L14.8583 27.4434C14.6857 27.616 14.4516 27.7129 14.2075 27.7129C13.9634 27.7129 13.7292 27.616 13.5566 27.4434C13.384 27.2707 13.287 27.0366 13.287 26.7925C13.287 26.5484 13.384 26.3143 13.5566 26.1417L27.1416 12.5567C27.3142 12.3841 27.5484 12.2871 27.7925 12.2871C28.0366 12.2871 28.2707 12.3841 28.4433 12.5567C28.6159 12.7293 28.7129 12.9634 28.7129 13.2075C28.7129 13.4516 28.6159 13.6857 28.4433 13.8584Z" fill="white"/>
<path d="M26.83 21.998C26.0721 21.998 25.3313 22.2228 24.7012 22.6438C24.0711 23.0648 23.58 23.6633 23.29 24.3634C23 25.0635 22.9241 25.834 23.0719 26.5772C23.2198 27.3205 23.5847 28.0032 24.1206 28.5391C24.6564 29.075 25.3392 29.4399 26.0824 29.5877C26.8257 29.7356 27.5961 29.6597 28.2963 29.3697C28.9964 29.0797 29.5948 28.5886 30.0159 27.9585C30.4369 27.3284 30.6616 26.5875 30.6616 25.8297C30.6568 24.815 30.2516 23.8432 29.534 23.1256C28.8165 22.4081 27.8447 22.0029 26.83 21.998ZM26.83 27.828C26.4347 27.828 26.0484 27.7108 25.7197 27.4913C25.3911 27.2717 25.135 26.9596 24.9837 26.5944C24.8325 26.2293 24.7929 25.8275 24.87 25.4399C24.9471 25.0522 25.1375 24.6961 25.4169 24.4167C25.6964 24.1372 26.0525 23.9469 26.4401 23.8698C26.8277 23.7927 27.2295 23.8322 27.5947 23.9835C27.9598 24.1347 28.2719 24.3909 28.4915 24.7195C28.7111 25.0481 28.8283 25.4345 28.8283 25.8297C28.8268 26.3593 28.6158 26.8667 28.2414 27.2411C27.8669 27.6156 27.3595 27.8266 26.83 27.828Z" fill="white"/>
<path d="M15.1699 10.3379C14.4121 10.3379 13.6713 10.5626 13.0412 10.9836C12.4111 11.4047 11.9199 12.0031 11.6299 12.7032C11.3399 13.4034 11.264 14.1738 11.4119 14.9171C11.5597 15.6603 11.9247 16.3431 12.4605 16.879C12.9964 17.4148 13.6791 17.7798 14.4224 17.9276C15.1657 18.0754 15.9361 17.9996 16.6362 17.7096C17.3364 17.4195 17.9348 16.9284 18.3558 16.2983C18.7769 15.6682 19.0016 14.9274 19.0016 14.1696C18.9968 13.1548 18.5915 12.183 17.874 11.4655C17.1565 10.748 16.1847 10.3427 15.1699 10.3379ZM15.1699 16.1679C14.7747 16.1679 14.3883 16.0507 14.0597 15.8311C13.7311 15.6115 13.475 15.2994 13.3237 14.9343C13.1725 14.5691 13.1329 14.1673 13.21 13.7797C13.2871 13.3921 13.4774 13.036 13.7569 12.7565C14.0364 12.477 14.3924 12.2867 14.7801 12.2096C15.1677 12.1325 15.5695 12.1721 15.9347 12.3233C16.2998 12.4746 16.6119 12.7307 16.8315 13.0593C17.0511 13.388 17.1683 13.7743 17.1683 14.1696C17.1668 14.6991 16.9558 15.2065 16.5814 15.581C16.2069 15.9554 15.6995 16.1664 15.1699 16.1679Z" fill="white"/>
</svg>
