<svg width="45" height="45" viewBox="0 0 45 45" fill="none" xmlns="http://www.w3.org/2000/svg">
<path d="M44.1593 22.4235L42.8482 21.1124L43.3117 20.6489C43.57 20.3906 43.57 19.9735 43.3117 19.7152L42.8217 19.2252C41.3848 17.7883 39.1732 17.3844 37.3258 18.2187C36.7828 18.4571 36.2928 18.7948 35.8558 19.2252L30.3333 24.7477L28.3932 22.8075C28.135 22.5493 27.7178 22.5493 27.4596 22.8075L26.7577 23.5094L4.59509 1.33361C3.69455 0.433068 2.23117 0.433068 1.32401 1.33361C0.416847 2.23415 0.423468 3.70415 1.32401 4.60469L23.4932 26.7739L22.7913 27.4758C22.5331 27.734 22.5331 28.1512 22.7913 28.4094L24.7314 30.3496L19.209 35.872C18.7786 36.3024 18.4343 36.799 18.2025 37.3354C17.792 38.2492 17.6662 39.2556 17.8516 40.2423C18.0237 41.2289 18.4939 42.1294 19.209 42.8379L19.699 43.3279C19.8314 43.4604 19.997 43.52 20.1691 43.52C20.3413 43.52 20.5068 43.4538 20.6393 43.3279L21.1028 42.8644L22.4139 44.1755C22.5463 44.3079 22.7119 44.3675 22.884 44.3675C23.0562 44.3675 23.2217 44.3013 23.3541 44.1755L44.1659 23.3704C44.2917 23.2446 44.3579 23.079 44.3579 22.9002C44.3579 22.7214 44.2785 22.5427 44.1593 22.4235ZM2.26428 3.66442C1.88023 3.28037 1.88023 2.65131 2.26428 2.26726C2.45631 2.08185 2.70793 1.98253 2.95955 1.98253C3.21117 1.98253 3.46279 2.08185 3.65482 2.27388L25.824 24.4431L24.4268 25.8402L2.26428 3.66442ZM24.1951 27.9393L27.9297 24.2047L29.3997 25.6747L25.6651 29.4093L24.1951 27.9393ZM20.1427 41.8977C19.6262 41.3812 19.2818 40.7256 19.156 40.0039C19.0236 39.2821 19.1097 38.5405 19.4143 37.8717C19.5864 37.481 19.8314 37.1235 20.1493 36.8123L36.796 20.1655C37.1139 19.8477 37.4714 19.6027 37.8621 19.4305C38.3323 19.2186 38.8355 19.1127 39.3387 19.1127C40.279 19.1127 41.1994 19.4769 41.8881 20.1589L41.9146 20.1854L20.1691 41.9175L20.1427 41.8977ZM22.8774 42.7651L22.0364 41.9242L41.9079 22.0527L42.7489 22.8936L22.8774 42.7651Z" fill="white"/>
</svg>
