<svg width="36" height="36" viewBox="0 0 36 36" fill="none" xmlns="http://www.w3.org/2000/svg">
<g clip-path="url(#clip0_202_164)">
<path d="M30.5477 0H5.45228C2.44591 0 0 2.44591 0 5.45228V30.5477C0 33.5541 2.44591 36 5.45228 36H30.5477C33.5541 36 36 33.5541 36 30.5477V5.45228C36 2.44591 33.5541 0 30.5477 0ZM34.6556 30.5477C34.6556 32.8128 32.8128 34.6556 30.5477 34.6556H5.45228C3.1872 34.6556 1.3444 32.8128 1.3444 30.5477V5.45228C1.3444 3.1872 3.1872 1.3444 5.45228 1.3444H30.5477C32.8128 1.3444 34.6556 3.1872 34.6556 5.45228V30.5477ZM16.805 10.2324C16.805 10.6036 16.5041 10.9046 16.1328 10.9046C15.7615 10.9046 15.4606 10.6036 15.4606 10.2324C15.4606 7.34953 13.1152 5.00415 10.2324 5.00415C7.34953 5.00415 5.00415 7.34953 5.00415 10.2324C5.00415 14.7558 10.3723 17.1119 13.7098 14.1365C13.9869 13.8895 14.4119 13.9139 14.6589 14.1909C14.9059 14.468 14.8815 14.8929 14.6044 15.14C10.4084 18.8805 3.65975 15.9201 3.65975 10.2324C3.65975 6.60824 6.60824 3.65975 10.2324 3.65975C13.8565 3.65975 16.805 6.60824 16.805 10.2324ZM7.76764 10.2324C7.76764 11.5914 8.87333 12.6971 10.2324 12.6971C11.5914 12.6971 12.6971 11.5914 12.6971 10.2324C12.6971 8.87333 11.5914 7.76764 10.2324 7.76764C8.87333 7.76764 7.76764 8.87333 7.76764 10.2324ZM11.3527 10.2324C11.3527 10.8501 10.8501 11.3527 10.2324 11.3527C9.61461 11.3527 9.11203 10.8501 9.11203 10.2324C9.11203 9.61461 9.61461 9.11203 10.2324 9.11203C10.8501 9.11203 11.3527 9.61461 11.3527 10.2324ZM23.6017 10.2324C23.6017 11.5914 24.7074 12.6971 26.0664 12.6971C27.4254 12.6971 28.5311 11.5914 28.5311 10.2324C28.5311 8.87333 27.4254 7.76764 26.0664 7.76764C24.7074 7.76764 23.6017 8.87333 23.6017 10.2324ZM27.1867 10.2324C27.1867 10.8501 26.6841 11.3527 26.0664 11.3527C25.4486 11.3527 24.9461 10.8501 24.9461 10.2324C24.9461 9.61461 25.4486 9.11203 26.0664 9.11203C26.6841 9.11203 27.1867 9.61461 27.1867 10.2324ZM31.0527 5.95016C34.6923 10.1847 31.6722 16.805 26.0664 16.805C22.4423 16.805 19.4938 13.8565 19.4938 10.2324C19.4938 6.60824 22.4423 3.65975 26.0664 3.65975C26.4377 3.65975 26.7386 3.96067 26.7386 4.33195C26.7386 4.70323 26.4377 5.00415 26.0664 5.00415C23.1836 5.00415 20.8382 7.34953 20.8382 10.2324C20.8382 13.1152 23.1836 15.4606 26.0664 15.4606C30.5376 15.4606 32.9223 10.1878 30.0331 6.82641C29.7911 6.54483 29.8232 6.12045 30.1047 5.87853C30.3862 5.63654 30.8106 5.66858 31.0527 5.95016ZM10.2324 23.6017C8.87333 23.6017 7.76764 24.7074 7.76764 26.0664C7.76764 27.4254 8.87333 28.5311 10.2324 28.5311C11.5914 28.5311 12.6971 27.4254 12.6971 26.0664C12.6971 24.7074 11.5914 23.6017 10.2324 23.6017ZM10.2324 27.1867C9.61461 27.1867 9.11203 26.6841 9.11203 26.0664C9.11203 25.4486 9.61461 24.9461 10.2324 24.9461C10.8501 24.9461 11.3527 25.4486 11.3527 26.0664C11.3527 26.6841 10.8501 27.1867 10.2324 27.1867ZM14.88 30.7139C14.6173 30.9764 14.1918 30.9764 13.9292 30.7139C13.6667 30.4514 13.6667 30.0258 13.9292 29.7633C17.2149 26.4776 14.8587 20.8382 10.2324 20.8382C7.34953 20.8382 5.00415 23.1836 5.00415 26.0664C5.00415 28.9492 7.34953 31.2946 10.2324 31.2946C10.6036 31.2946 10.9046 31.5955 10.9046 31.9668C10.9046 32.3381 10.6036 32.639 10.2324 32.639C6.60824 32.639 3.65975 29.6905 3.65975 26.0664C3.65975 22.4423 6.60824 19.4938 10.2324 19.4938C16.0514 19.4938 19.009 26.5848 14.88 30.7139ZM24.1245 28.3817C23.342 28.3817 22.7054 29.0183 22.7054 29.8008C22.7054 30.5833 23.342 31.2199 24.1245 31.2199C24.907 31.2199 25.5436 30.5833 25.5436 29.8008C25.5436 29.0183 24.907 28.3817 24.1245 28.3817ZM29.3527 28.3817C28.5702 28.3817 27.9336 29.0183 27.9336 29.8008C27.9336 30.5833 28.5702 31.2199 29.3527 31.2199C30.1352 31.2199 30.7718 30.5833 30.7718 29.8008C30.7718 29.0183 30.1352 28.3817 29.3527 28.3817ZM29.3527 23.1535C28.5702 23.1535 27.9336 23.7901 27.9336 24.5726C27.9336 25.3551 28.5702 25.9917 29.3527 25.9917C30.1352 25.9917 30.7718 25.3551 30.7718 24.5726C30.7718 23.7901 30.1352 23.1535 29.3527 23.1535Z" fill="white"/>
</g>
<defs>
<clipPath id="clip0_202_164">
<rect width="36" height="36" fill="white"/>
</clipPath>
</defs>
</svg>
